<svg height="511pt" viewBox="0 -18 511.99865 511" width="511pt" xmlns="http://www.w3.org/2000/svg"><path d="m511.84375 110.121094c-.582031-4.011719-2.769531-7.621094-6.046875-10-2.773437-2.011719-6.148437-3.007813-9.5625-2.839844-1.582031.078125-3.1875.117188-4.777344.117188-25.332031 0-49.148437-9.867188-67.070312-27.789063-15.226563-15.226563-24.609375-34.546875-27.125-55.867187-.511719-4.335938-2.890625-8.234376-6.507813-10.679688-3.621094-2.4375-8.125-3.183594-12.339844-2.035156-20.863281 5.695312-39.996093 16.804687-55.328124 32.128906-13.480469 13.484375-23.691407 29.894531-29.832032 47.859375-17.964844 6.144531-34.378906 16.355469-47.863281 29.835937-13.484375 13.488282-23.691406 29.898438-29.832031 47.859376-17.964844 6.140624-34.378906 16.351562-47.859375 29.835937-13.484375 13.488281-23.695313 29.898437-29.832031 47.855469-17.96875 6.140625-34.378907 16.351562-47.863282 29.835937-13.484375 13.488281-23.691406 29.898438-29.832031 47.859375-17.960937 6.140625-34.371094 16.347656-47.859375 29.832032-.132812.132812-.261719.265624-.390625.40625-.566406.609374-5.621094 6.078124-8.816406 10.234374-2.609375 3.390626-3.640625 7.742188-2.84375 11.945313.800781 4.207031 3.363281 7.875 7.03125 10.078125 2.550781 1.527344 5.492187 2.28125 8.464843 2.117188 1.578126-.078126 3.179688-.117188 4.761719-.117188 25.347657 0 49.175781 9.867188 67.101563 27.785156 15.21875 15.222656 24.597656 34.542969 27.125 55.882813.511718 4.335937 2.890625 8.230469 6.511718 10.671875 2.5 1.6875 5.425782 2.5625 8.382813 2.5625 1.324219 0 2.652344-.175782 3.949219-.527344 20.863281-5.695312 39.992187-16.804688 55.324218-32.132812 13.484376-13.484376 23.695313-29.898438 29.835938-47.859376 17.960938-6.140624 34.375-16.351562 47.855469-29.832031 13.488281-13.488281 23.699219-29.902343 29.835937-47.859375 17.953125-6.136718 34.367188-16.347656 47.863282-29.835937 13.480468-13.484375 23.691406-29.894531 29.835937-47.855469 17.960937-6.144531 34.371094-16.355469 47.855469-29.832031.070312-.074219.144531-.144531.214844-.222657 13.375-13.4375 23.507812-29.769531 29.621093-47.640624 17.960938-6.144532 34.371094-16.351563 47.855469-29.832032.132812-.132812.261719-.269531.390625-.40625.5625-.609375 5.621094-6.078125 8.820313-10.238281 2.46875-3.210937 3.523437-7.292969 2.945312-11.300781zm0 0" fill="#ffd400"/><path d="m511.84375 110.121094c-.582031-4.011719-2.769531-7.621094-6.046875-10-2.773437-2.011719-6.148437-3.007813-9.5625-2.839844-1.582031.078125-3.1875.117188-4.777344.117188-25.332031 0-49.148437-9.867188-67.070312-27.789063l-336.769531 336.773437c15.21875 15.21875 24.601562 34.542969 27.125 55.878907.515624 4.335937 2.890624 8.234375 6.511718 10.675781 2.503906 1.6875 5.425782 2.5625 8.386719 2.5625 1.320313 0 2.648437-.175781 3.949219-.53125 20.859375-5.691406 39.992187-16.804688 55.324218-32.132812 13.484376-13.484376 23.691407-29.894532 29.832032-47.855469 17.964844-6.144531 34.375-16.351563 47.859375-29.835938 13.488281-13.488281 23.699219-29.902343 29.835937-47.859375 17.953125-6.136718 34.363282-16.34375 47.863282-29.832031 13.480468-13.484375 23.6875-29.894531 29.832031-47.855469 17.960937-6.144531 34.375-16.355468 47.855469-29.835937.074218-.070313.144531-.144531.214843-.21875 13.375-13.441407 23.511719-29.773438 29.621094-47.644531 17.960937-6.140626 34.371094-16.347657 47.855469-29.828126.132812-.132812.261718-.269531.390625-.40625.566406-.609374 5.625-6.082031 8.824219-10.242187 2.46875-3.210937 3.523437-7.292969 2.945312-11.300781zm0 0" fill="#ffb229"/><g fill="#ff9f00"><path d="m60.171875 314.097656c-9.0625 3.097656-17.734375 7.234375-25.832031 12.308594l181.328125 76.617188c1.113281-2.644532 2.148437-5.324219 3.078125-8.042969 9.066406-3.101563 17.734375-7.238281 25.835937-12.308594l-181.332031-76.621094c-1.113281 2.644531-2.148438 5.324219-3.078125 8.046875zm0 0"/><path d="m137.867188 236.402344c-9.066407 3.097656-17.738282 7.234375-25.835938 12.308594l181.332031 76.621093c1.113281-2.648437 2.148438-5.328125 3.078125-8.046875 9.0625-3.097656 17.730469-7.234375 25.832032-12.308594l-181.328126-76.617187c-1.113281 2.644531-2.148437 5.324219-3.078124 8.042969zm0 0"/><path d="m215.558594 158.710938c-9.066406 3.097656-17.734375 7.234374-25.835938 12.308593l181.335938 76.621094c1.113281-2.644531 2.148437-5.324219 3.078125-8.046875 9.066406-3.097656 17.734375-7.238281 25.832031-12.308594l-181.332031-76.621094c-1.113281 2.644532-2.148438 5.324219-3.078125 8.046876zm0 0"/><path d="m477.660156 149.59375-181.328125-76.625c-1.113281 2.644531-2.148437 5.324219-3.078125 8.046875-9.0625 3.101563-17.730468 7.238281-25.828125 12.308594l181.324219 76.625c1.113281-2.648438 2.148438-5.328125 3.078125-8.050781 9.066406-3.097657 17.730469-7.238282 25.832031-12.304688zm0 0"/></g><path d="m215.667969 403.023438c1.113281-2.644532 2.148437-5.324219 3.078125-8.042969 9.066406-3.101563 17.734375-7.238281 25.835937-12.308594l-93.675781-39.582031-22.894531 22.894531zm0 0" fill="#ff8300"/><path d="m293.363281 325.332031c1.113281-2.648437 2.148438-5.328125 3.078125-8.046875 9.0625-3.097656 17.730469-7.234375 25.832032-12.308594l-93.671876-39.582031-22.894531 22.898438zm0 0" fill="#ff8300"/><path d="m371.058594 247.640625c1.113281-2.644531 2.148437-5.324219 3.078125-8.046875 9.066406-3.097656 17.734375-7.238281 25.832031-12.308594l-93.675781-39.582031-22.894531 22.898437zm0 0" fill="#ff8300"/><path d="m361.09375 132.90625 87.65625 37.039062c1.113281-2.644531 2.148438-5.324218 3.078125-8.046874 9.066406-3.097657 17.730469-7.238282 25.828125-12.304688l-93.667969-39.585938zm0 0" fill="#ff8300"/></svg>