<svg viewBox="-106 0 512 512" xmlns="http://www.w3.org/2000/svg"><path d="m184.160156 318.59375c-3.800781 0-7.082031-2.828125-7.542968-6.695312-.128907-1.09375-1.160157-10.992188 2.734374-21.863282 3.8125-10.652344 13.027344-23.980468 35.253907-26.96875 4.167969-.554687 8 2.363282 8.558593 6.53125.5625 4.167969-2.363281 8-6.53125 8.558594-27.191406 3.65625-25.207031 29.085938-24.890624 31.976562.457031 4.164063-2.539063 7.933594-6.703126 8.410157-.292968.035156-.585937.050781-.878906.050781zm0 0" fill="#93cc4a"/><path d="m132.421875 79.203125v-79.203125h-86.332031v79.203125c0 34.941406-7.878906 69.429687-23.042969 100.902344-15.167969 31.472656-23.046875 65.964843-23.046875 100.902343v212.683594c0 10.109375 8.199219 18.308594 18.308594 18.308594h141.890625c10.113281 0 18.308593-8.199219 18.308593-18.308594v-212.683594c0-34.9375-7.875-69.425781-23.042968-100.902343-15.167969-31.472657-23.042969-65.960938-23.042969-100.902344zm0 0" fill="#dfede7"/><path d="m155.464844 180.105469c-15.164063-31.472657-23.042969-65.960938-23.042969-100.898438v-79.207031h-58.539063v79.203125c0 34.941406 7.875 69.429687 23.042969 100.902344 15.167969 31.472656 23.042969 65.964843 23.042969 100.902343v212.683594c0 10.109375-8.195312 18.308594-18.308594 18.308594h58.539063c10.113281 0 18.3125-8.199219 18.3125-18.308594v-212.683594c-.003907-34.9375-7.878907-69.425781-23.046875-100.902343zm0 0" fill="#d7e0dc"/><path d="m23.042969 180.105469c-15.164063 31.476562-23.042969 65.964843-23.042969 100.902343v212.683594c0 10.113282 8.195312 18.308594 18.308594 18.308594h141.890625c10.113281 0 18.308593-8.195312 18.308593-18.308594v-212.683594c0-34.9375-7.875-69.429687-23.042968-100.902343-12.039063-24.980469-19.464844-51.863281-22.023438-79.359375h-88.375c-2.558594 27.496094-9.984375 54.378906-22.023437 79.359375zm0 0" fill="#fc4e51"/><path d="m155.464844 180.105469c-.863282-1.789063-1.695313-3.589844-2.507813-5.398438-.265625-.585937-.519531-1.175781-.777343-1.765625-.546876-1.242187-1.085938-2.480468-1.609376-3.730468-.289062-.6875-.574218-1.371094-.851562-2.058594-.492188-1.199219-.964844-2.398438-1.433594-3.601563-.265625-.679687-.535156-1.355469-.792968-2.039062-.589844-1.558594-1.160157-3.125-1.71875-4.695313-.3125-.882812-.613282-1.769531-.914063-2.660156-.386719-1.140625-.773437-2.277344-1.144531-3.425781-.308594-.953125-.605469-1.910157-.898438-2.867188-.269531-.871093-.539062-1.742187-.796875-2.617187-.3125-1.054688-.617187-2.105469-.914062-3.160156-.207031-.734376-.402344-1.472657-.601563-2.207032-1.152344-4.261718-2.183594-8.546875-3.089844-12.863281-.0625-.296875-.128906-.589844-.1875-.882813-.292968-1.421874-.570312-2.847656-.835937-4.273437-.070313-.386719-.144531-.773437-.210937-1.160156-.269532-1.46875-.523438-2.941407-.761719-4.417969-.027344-.171875-.054688-.339844-.082031-.511719-.792969-4.984375-1.425782-9.992187-1.894532-15.023437h-58.542968c2.5625 27.496094 9.988281 54.378906 22.027343 79.359375 15.164063 31.472656 23.042969 65.964843 23.042969 100.902343v212.683594c0 10.109375-8.199219 18.308594-18.308594 18.308594h58.539063c10.113281 0 18.308593-8.199219 18.308593-18.308594v-212.683594c0-34.9375-7.875-69.425781-23.042968-100.902343zm0 0" fill="#ea3942"/><path d="m134.238281 52.039062h-89.96875c-5.882812 0-10.652343-4.769531-10.652343-10.652343v-30.734375c0-5.882813 4.769531-10.652344 10.652343-10.652344h89.96875c5.886719 0 10.65625 4.769531 10.65625 10.652344v30.734375c-.003906 5.886719-4.773437 10.652343-10.65625 10.652343zm0 0" fill="#fccf3f"/><path d="m86.570312 52.039062h47.667969c5.882813 0 10.652344-4.765624 10.652344-10.652343v-30.734375c0-5.882813-4.769531-10.652344-10.652344-10.652344h-47.667969zm0 0" fill="#efc03c"/><path d="m0 281.007812h178.511719v183.558594h-178.511719zm0 0" fill="#fccf3f"/><path d="m119.96875 281.007812h58.542969v183.558594h-58.542969zm0 0" fill="#efc03c"/><path d="m300.335938 403.726562c0-56.113281-47.070313-78.589843-105.128907-78.589843-58.058593 0-105.128906 22.476562-105.128906 78.589843 0 56.109376 47.066406 108.273438 105.128906 108.273438 58.058594 0 105.128907-52.160156 105.128907-108.273438zm0 0" fill="#fc4e51"/><path d="m195.207031 325.136719c-10.160156 0-19.980469.691406-29.269531 2.128906 43.816406 6.769531 75.855469 30.164063 75.855469 76.460937 0 46.292969-32.039063 89.894532-75.855469 103.734376 9.289062 2.9375 19.109375 4.539062 29.269531 4.539062 58.058594 0 105.128907-52.164062 105.128907-108.277344 0-56.109375-47.070313-78.585937-105.128907-78.585937zm0 0" fill="#ea3942"/><path d="m297.347656 362.300781c-11.976562-31.398437-48.914062-55.183593-102.140625-55.183593-53.230469 0-90.164062 23.785156-102.140625 55.183593 6.117188 1.660157 51.496094-19.117187 51.496094-19.117187s-11.511719 29.347656-9.210938 41.433594c.957032 5.019531 15.53125-8.351563 31.390626-23.976563 0 0 11.597656 53.425781 28.464843 53.425781 16.867188 0 28.464844-53.425781 28.464844-53.425781 15.859375 15.625 30.433594 28.996094 31.390625 23.976563 2.300781-12.085938-9.210938-41.433594-9.210938-41.433594s45.378907 20.777344 51.496094 19.117187zm0 0" fill="#a0e557"/><path d="m195.207031 307.117188c-4.082031 0-8.054687.15625-11.941406.429687 23.3125 16.222656 44.070313 45.65625 52.394531 64.625 0 .003906 0 .003906.003906.007813 10.574219 9.832031 18.691407 16.140624 19.394532 12.441406 2.300781-12.085938-9.207032-41.4375-9.207032-41.4375s45.378907 20.777344 51.492188 19.117187c-11.972656-31.398437-48.910156-55.183593-102.136719-55.183593zm0 0" fill="#93cc4a"/></svg>